<svg width="28" height="28" viewBox="0 0 28 28" fill="none" xmlns="http://www.w3.org/2000/svg">
<path d="M25.6667 16.3334H2.33333C1.71449 16.3334 1.121 16.0876 0.683418 15.65C0.245833 15.2124 0 14.6189 0 14.0001C0 13.3812 0.245833 12.7878 0.683418 12.3502C1.121 11.9126 1.71449 11.6667 2.33333 11.6667H25.6667C26.2855 11.6667 26.879 11.9126 27.3166 12.3502C27.7542 12.7878 28 13.3812 28 14.0001C28 14.6189 27.7542 15.2124 27.3166 15.65C26.879 16.0876 26.2855 16.3334 25.6667 16.3334Z" fill="white"/>
<path d="M25.6667 7.00004H16.3333C15.7145 7.00004 15.121 6.75421 14.6834 6.31662C14.2458 5.87904 14 5.28555 14 4.66671C14 4.04787 14.2458 3.45438 14.6834 3.01679C15.121 2.57921 15.7145 2.33337 16.3333 2.33337H25.6667C26.2855 2.33337 26.879 2.57921 27.3166 3.01679C27.7542 3.45438 28 4.04787 28 4.66671C28 5.28555 27.7542 5.87904 27.3166 6.31662C26.879 6.75421 26.2855 7.00004 25.6667 7.00004Z" fill="white"/>
<path d="M11.6667 25.6667H2.33333C1.71449 25.6667 1.121 25.4208 0.683418 24.9832C0.245833 24.5457 0 23.9522 0 23.3333C0 22.7145 0.245833 22.121 0.683418 21.6834C1.121 21.2458 1.71449 21 2.33333 21H11.6667C12.2855 21 12.879 21.2458 13.3166 21.6834C13.7542 22.121 14 22.7145 14 23.3333C14 23.9522 13.7542 24.5457 13.3166 24.9832C12.879 25.4208 12.2855 25.6667 11.6667 25.6667Z" fill="white"/>
</svg>
