<svg width="1724" height="504" viewBox="0 0 1724 504" fill="none" xmlns="http://www.w3.org/2000/svg">
<g clip-path="url(#clip0_117_1963)">
<path d="M-278.504 395.044C-257.802 304.557 -193.093 225.928 -108.282 188.198C-23.37 150.332 79.9503 154.212 163.729 198.238C270.255 254.253 344.914 369.945 461.907 396.78C561.025 419.515 659.312 371.157 749.641 328.045C840.208 284.9 945.433 245.346 1039.64 284.499C1103.25 310.849 1153.27 370.814 1221.08 380.001C1290.1 389.257 1354.2 341.062 1389.62 282.57C1425.18 224.18 1439.81 155.595 1464.54 91.6168C1539.05 -102.18 1711.53 -254.217 1914.7 -304.72" stroke="#02020C" stroke-opacity="0.12" stroke-miterlimit="10"/>
<path d="M-280.975 403.975C-267.524 347.409 -236.2 295.788 -193.74 256.966C-167.973 233.342 -138.042 214.322 -105.676 201.362C-84.0418 192.835 -61.4264 186.949 -38.4392 183.67C16.8113 176.03 74.0222 183.828 127.913 203.947C140.81 208.757 153.437 214.21 165.691 220.441C207.496 241.438 245 269.578 281.353 297.277C328.572 333.341 373.928 369.065 427.447 387.424C439.261 391.421 451.584 394.741 464.346 396.91C510.453 404.841 556.461 397.673 602.234 383.768C653.221 368.273 704.107 344.45 752.217 324.046C758.717 321.305 765.218 318.564 771.854 315.925C819.896 296.74 869.799 281.278 919.463 277.7C958.937 274.728 998.443 279.611 1036.02 297.222C1056.09 306.569 1074.84 319.37 1093.09 332.847C1131.13 360.547 1168.3 391.395 1214.44 397.87C1274.63 406.209 1330.87 369.895 1367.81 322.068C1373.03 315.399 1377.73 308.562 1382.17 301.521C1418.1 244.045 1434.29 177.052 1460.24 114.834C1466.71 99.1613 1473.95 83.8609 1481.61 68.8652C1524.65 -14.1691 1586.99 -86.5357 1660.9 -142.176C1734.61 -197.546 1819.46 -235.886 1907.18 -254.082" stroke="#02020C" stroke-opacity="0.12" stroke-miterlimit="10"/>
<path d="M-283.318 413.014C-269.19 356.109 -236.477 304.895 -192.765 267.224C-166.287 244.345 -135.713 226.442 -102.907 214.87C-81.0362 207.156 -58.2856 202.218 -35.3664 200.157C19.6467 195.09 75.706 205.833 129.665 226.426C142.697 231.337 155.459 236.892 167.916 242.853C210.466 263.139 248.817 288.74 285.476 313.494C332.966 345.529 377.85 376.243 430.557 390.607C442.134 393.792 454.219 396.299 466.745 397.656C511.972 402.81 557.338 393.679 603.111 378.927C654.064 362.349 706.101 338.967 754.651 320.797C761.185 318.293 767.753 316.026 774.321 313.759C822.633 297.316 871.046 285.815 919.118 285.486C957.373 284.985 995.49 292 1031.91 310.864C1051.38 321.024 1069.62 334.501 1087.46 348.52C1124.49 377.574 1160.88 409.742 1207.56 416.623C1267.17 425.166 1322.9 388.683 1359.95 341.566C1365.06 335.033 1369.9 328.297 1374.34 321.256C1410.64 264.694 1428.39 199.293 1455.56 138.835C1462.33 123.603 1469.88 108.742 1477.98 94.2884C1522.61 13.9288 1586.13 -55.2217 1660.11 -106.157C1733.76 -156.923 1817.04 -189.237 1899.75 -202.728" stroke="#02020C" stroke-opacity="0.12" stroke-miterlimit="10"/>
<path d="M-285.55 421.922C-270.61 364.78 -236.678 313.634 -191.714 277.115C-164.525 254.98 -133.309 238.195 -100.164 228.147C-78.1581 221.38 -55.2722 217.39 -32.3193 216.413C22.4562 213.918 77.127 227.64 131.627 248.64C144.694 253.788 157.658 259.072 170.217 264.897C213.275 284.507 252.845 307.636 289.775 329.208C337.774 357.181 382.049 382.783 433.708 393.186C445.15 395.422 456.998 397.117 469.287 397.661C513.635 400.04 558.358 388.945 604.097 373.11C655.151 355.55 708.069 332.405 757.194 316.571C763.897 314.405 770.499 312.375 776.999 310.481C825.446 296.678 872.64 289.341 919.086 292.025C956.02 294.131 992.952 303.008 1028.16 323.496C1047.01 334.468 1064.61 348.521 1081.94 363.217C1117.82 393.523 1153.7 427.214 1200.65 434.298C1259.79 442.909 1315.05 406.493 1352.06 359.986C1357.17 353.453 1362.05 346.954 1366.52 340.15C1403.19 284.502 1422.37 220.59 1450.88 161.995C1457.96 147.203 1465.82 132.783 1474.22 118.769C1520.44 41.0842 1585.28 -24.7483 1659.16 -71.3164C1732.84 -117.614 1814.46 -143.766 1892.06 -152.418" stroke="#02020C" stroke-opacity="0.12" stroke-miterlimit="10"/>
<path d="M-287.887 430.96C-272.27 373.48 -236.984 322.503 -190.733 287.373C-162.834 265.983 -130.839 250.416 -97.5257 241.553C-75.2828 235.599 -52.228 232.794 -29.6138 232.832C24.9243 232.91 78.4435 249.577 133.147 271.152C146.348 276.402 159.449 281.787 172.312 287.207C216.115 306.105 256.667 326.798 293.869 345.188C342.241 368.996 386.043 389.588 436.89 395.996C448.095 397.42 459.673 398.065 471.759 398.034C515.329 397.501 559.307 384.577 605.046 367.896C656.067 349.253 710.034 326.683 759.7 312.949C766.336 311.156 772.971 309.363 779.776 307.908C828.494 296.848 874.197 293.471 919.288 299.371C955.003 303.948 990.649 314.822 1024.73 336.799C1042.98 348.584 1060.07 363.314 1076.76 378.585C1111.59 410.008 1146.76 445.493 1194.22 452.747C1252.82 461.798 1307.53 424.975 1344.64 379.179C1349.79 372.883 1354.77 366.249 1359.14 359.581C1396.18 304.847 1416.91 242.526 1446.65 185.692C1454.17 171.441 1462.19 157.36 1470.79 143.921C1518.61 68.9113 1584.77 6.39671 1658.58 -35.5673C1732.19 -77.2605 1812.25 -97.3876 1884.73 -101.199" stroke="#02020C" stroke-opacity="0.12" stroke-miterlimit="10"/>
<path d="M-290.229 439.992C-273.934 382.173 -237.294 331.366 -189.791 297.386C-161.045 276.843 -128.543 262.292 -94.7896 254.817C-72.1744 249.777 -49.2214 247.954 -26.5735 249.075C27.727 251.726 79.9931 271.473 135.001 293.489C148.338 298.84 161.54 304.09 174.505 309.374C218.816 327.596 260.587 345.817 298.06 361.025C346.839 380.906 390.27 396.352 440.068 398.799C451.138 399.275 462.378 399.244 474.328 398.264C517.018 394.955 560.354 380.068 606.195 362.405C657.284 342.543 712.3 320.549 762.406 309.049C769.075 307.493 775.778 306.174 782.516 305.092C831.503 296.773 875.75 297.594 919.216 306.506C953.711 313.555 988.206 326.527 1021.04 349.893C1038.67 362.49 1055.26 377.896 1071.54 393.709C1105.22 426.384 1139.88 463.393 1187.61 470.85C1245.73 479.968 1299.97 443.214 1337.05 398.027C1342.2 391.731 1347.08 385.232 1351.71 378.767C1389.13 324.947 1411.42 264.218 1442.37 209.144C1450.2 195.334 1458.43 181.828 1467.43 168.694C1516.84 96.359 1584.08 37.196 1658.06 -0.197688C1731.7 -37.4222 1810.21 -51.5238 1877.48 -50.3596" stroke="#02020C" stroke-opacity="0.12" stroke-miterlimit="10"/>
<path d="M-292.566 449.036C-275.594 390.879 -237.466 340.343 -188.812 307.65C-159.355 287.851 -126.21 274.418 -92.0166 268.331C-69.2662 264.239 -46.1779 263.363 -23.6318 265.467C30.4651 270.928 81.3087 293.416 136.756 315.974C150.229 321.427 163.431 326.676 176.734 331.791C221.79 349.302 264.307 365.12 302.288 377.112C351.441 392.829 394.399 403.265 443.385 401.717C454.218 401.38 465.323 400.401 476.935 398.744C518.745 392.659 561.438 375.808 607.279 357.299C658.47 336.455 714.501 314.8 765.047 305.534C771.885 304.317 778.622 303.235 785.292 302.525C834.414 296.847 877.306 301.731 919.282 313.757C952.456 323.412 985.765 338.246 1017.38 363.236C1034.41 376.645 1050.48 392.729 1066.12 409.117C1098.65 443.045 1132.8 481.577 1180.94 489.339C1238.62 498.761 1292.22 461.736 1329.4 417.26C1334.68 411.065 1339.45 404.702 1344.09 398.237C1381.78 345.466 1405.59 286.092 1437.9 232.88C1446.03 219.51 1454.7 206.546 1464.01 193.852C1515.01 124.192 1583.57 68.3468 1657.48 35.5572C1731.05 2.93674 1808 -5.1392 1870.15 0.86503" stroke="#02020C" stroke-opacity="0.12" stroke-miterlimit="10"/>
<path d="M-294.935 457.83C-277.387 399.47 -237.803 348.969 -187.998 317.562C-157.831 298.509 -124.042 286.192 -89.4094 281.494C-66.4222 278.214 -43.3002 278.422 -20.8221 281.744C33.0373 289.778 82.7294 315.211 138.482 338.209C151.853 343.797 165.529 348.98 178.934 353.959C224.497 370.793 268.233 384.14 306.486 392.949C356.147 404.605 398.395 410.063 446.434 404.419C457.031 403.27 467.898 401.478 479.375 398.874C520.306 390.012 562.592 371.164 608.163 351.605C659.32 329.678 716.368 308.362 767.623 301.533C774.496 300.553 781.3 299.945 788.003 299.472C837.396 296.536 878.798 305.38 919.182 320.656C951.002 332.68 983.058 349.749 1013.52 375.991C1029.94 390.213 1045.37 406.872 1060.64 424.039C1092.25 459.185 1125.52 499.172 1173.96 507.375C1231.17 516.865 1284.3 479.907 1321.44 436.04C1326.62 429.981 1331.53 423.719 1336.31 417.356C1374.5 365.601 1399.74 307.717 1433.26 256.266C1441.69 243.335 1450.67 230.811 1460.18 218.693C1512.77 151.708 1582.65 99.1805 1656.36 70.8933C1729.96 42.7416 1805.25 40.8267 1862.39 51.5356" stroke="#02020C" stroke-opacity="0.12" stroke-miterlimit="10"/>
<path d="M-297.275 466.878C-279.051 408.18 -238.213 357.983 -186.919 327.694C-156.041 309.385 -121.475 298.288 -86.6725 294.774C-63.4147 292.544 -40.1575 293.7 -17.7811 298.003C35.8408 308.61 84.1443 337.023 140.337 360.562C153.843 366.252 167.519 371.434 181.127 376.142C227.334 392.401 272.154 403.175 310.678 408.803C360.712 416.294 402.623 416.844 449.613 407.239C459.939 405.04 470.705 402.537 481.844 399.256C521.996 387.482 563.539 366.806 609.211 346.266C660.335 323.255 718.533 302.379 770.127 297.92C776.931 297.312 783.905 297.043 790.642 296.807C840.305 296.614 880.216 309.418 919.11 327.808C949.711 342.304 980.48 361.369 1009.83 389.101C1025.63 404.135 1040.56 421.471 1055.28 439.078C1085.74 475.476 1118.5 516.987 1167.35 525.494C1223.99 535.187 1276.6 498.06 1313.85 454.904C1319.03 448.845 1323.98 442.82 1328.65 436.592C1367.22 385.752 1394.01 329.458 1428.85 279.633C1437.59 267.143 1446.87 255.059 1456.69 243.381C1510.87 179.07 1581.97 129.996 1655.71 106.178C1729.24 82.63 1802.97 86.7406 1855 102.29" stroke="#02020C" stroke-opacity="0.12" stroke-miterlimit="10"/>
<path d="M-299.614 475.914C-280.712 416.877 -238.521 366.849 -186.076 337.847C-154.487 320.283 -119.277 310.303 -84.0355 308.178C-60.5408 306.76 -37.1484 308.864 -14.9754 314.285C38.4091 327.464 85.561 358.822 141.956 382.937C155.598 388.728 169.511 393.877 183.221 398.45C230.173 413.998 275.839 422.233 314.906 424.881C365.347 428.446 406.649 423.883 452.93 410.148C463.019 407.137 473.649 403.686 484.45 399.727C523.722 385.178 564.622 362.538 610.295 341.151C661.52 317.159 720.734 296.622 772.767 294.397C779.741 294.128 786.613 293.994 793.451 294.469C843.25 296.916 881.806 313.783 919.108 335.423C948.489 352.389 978.107 373.553 1006.2 402.673C1021.4 418.519 1035.82 436.532 1050.03 454.816C1079.34 492.467 1111.59 535.501 1160.71 544.211C1216.91 554.209 1269.12 516.777 1306.23 474.366C1311.44 468.544 1316.49 462.384 1321.2 456.392C1360.14 406.466 1388.35 351.663 1424.55 303.699C1433.59 291.649 1443.17 280.005 1453.3 268.768C1509.07 207.132 1581.35 161.274 1655.16 142.161C1728.62 123.218 1800.9 133.219 1847.71 153.743" stroke="#02020C" stroke-opacity="0.12" stroke-miterlimit="10"/>
<path d="M-301.848 484.819C-282.269 425.443 -238.724 375.586 -184.891 347.836C-152.592 331.017 -116.739 322.155 -81.1588 321.552C-57.529 321.083 -34.0013 324.134 -11.7947 330.639C41.3523 346.391 87.251 380.829 143.951 405.384C157.728 411.277 171.641 416.426 185.554 420.728C233.014 435.599 279.9 441.363 319.238 440.829C370.052 440.23 410.881 430.657 456.248 413.062C466.202 409.103 476.359 404.873 487.159 400.068C525.553 382.743 565.809 358.139 611.448 335.669C662.64 310.594 723.005 290.497 775.478 290.507C782.485 290.474 789.425 290.814 796.297 291.526C846.264 296.851 883.431 317.543 919.244 342.297C947.271 361.633 975.635 385.031 1002.61 415.64C1017.2 432.299 1031.11 450.989 1044.68 469.848C1072.84 508.751 1104.45 553.207 1154.11 562.323C1209.83 572.389 1261.43 534.923 1298.64 493.223C1303.86 487.401 1308.94 481.477 1313.65 475.486C1352.96 426.474 1382.73 373.262 1420.14 327.059C1429.49 315.449 1439.38 304.246 1449.94 293.55C1507.17 234.487 1580.91 192.049 1654.64 177.54C1728.14 163.065 1798.76 179.227 1840.46 204.591" stroke="#02020C" stroke-opacity="0.12" stroke-miterlimit="10"/>
<path d="M-304.184 493.852C-283.928 434.138 -238.893 384.551 -184.045 357.987C-150.933 341.778 -114.404 334.269 -78.6547 334.852C-54.7881 335.195 -31.0914 339.431 -9.08806 347.053C43.8215 365.378 88.4332 402.659 145.471 427.891C159.283 434.022 173.534 439.001 187.548 443.168C235.753 457.328 283.621 460.655 323.129 457.074C374.452 452.412 414.707 437.965 459.093 416.036C468.81 411.265 478.832 406.087 489.293 400.605C526.909 380.368 566.421 353.936 612.06 330.62C663.218 304.461 724.497 284.838 777.646 287.049C784.823 287.355 791.797 287.932 798.601 289.016C848.838 297.083 884.515 321.736 918.837 349.604C945.645 371.411 972.723 396.806 998.581 428.905C1012.56 446.376 1025.83 465.641 1039.02 485.279C1066.13 525.299 1097.13 571.414 1147.07 580.733C1202.21 591.001 1253.3 553.366 1290.62 512.377C1295.73 506.691 1300.95 500.869 1305.79 494.979C1345.47 446.881 1376.8 395.26 1415.44 350.818C1425.09 339.648 1435.41 328.987 1446.04 318.765C1504.76 262.512 1579.92 223.256 1653.45 213.25C1726.88 203.379 1795.94 225.567 1832.53 255.771" stroke="#02020C" stroke-opacity="0.12" stroke-miterlimit="10"/>
<path d="M-306.524 502.897C-285.591 442.845 -239.202 393.428 -182.966 368.116C-149.008 352.753 -111.971 346.261 -75.782 348.231C-51.6447 349.624 -27.9482 354.707 -6.04667 363.31C46.7608 384.309 89.9839 424.569 147.293 450.005C161.239 456.236 175.491 461.216 189.844 465.213C238.557 478.697 287.644 479.552 327.423 472.79C379.018 464.099 418.901 444.506 462.374 418.718C471.854 413.134 481.741 407.008 491.966 400.714C528.701 377.7 567.571 349.305 613.312 325.007C664.571 297.867 726.865 278.582 780.455 283.028C787.665 283.571 794.707 284.621 801.443 286.078C851.815 296.786 886.273 325.602 918.868 356.618C944.456 380.896 970.247 408.289 994.852 441.775C1008.22 460.058 1020.98 480.001 1033.64 500.078C1059.73 541.452 1090.09 588.989 1140.43 598.613C1195.23 609.051 1245.72 571.382 1283 531.002C1288.24 525.417 1293.22 519.629 1298.2 513.841C1338.26 466.657 1371.14 416.628 1410.99 373.946C1420.95 363.216 1431.58 352.995 1442.52 343.213C1502.82 289.635 1579.2 253.833 1652.77 248.295C1726.23 242.893 1793.63 271.242 1825.1 306.286" stroke="#02020C" stroke-opacity="0.12" stroke-miterlimit="10"/>
<path d="M-308.996 511.83C-287.251 451.541 -239.643 402.192 -182.257 378.167C-147.588 363.549 -109.908 358.174 -73.2787 361.532C-48.9046 363.737 -25.1744 369.903 -3.23922 379.59C49.3307 403.162 91.2669 446.266 148.914 472.378C162.996 478.712 177.485 483.657 191.804 487.418C241.261 500.19 291.094 498.643 331.382 488.664C383.485 475.911 422.658 451.341 465.421 421.423C474.766 414.891 484.314 408.088 494.167 400.879C530.023 375.09 568.351 344.595 613.991 319.587C665.216 291.363 728.662 272.519 782.691 279.198C789.834 280.114 797.044 281.503 803.95 283.299C854.592 296.749 887.661 329.39 918.664 363.656C942.898 390.303 967.436 419.93 990.923 454.905C1003.82 474.103 1015.93 494.62 1028.08 515.375C1053.02 558.002 1082.74 606.96 1133.48 616.889C1187.71 627.529 1237.69 589.691 1275.07 550.022C1280.32 544.437 1285.33 538.886 1290.44 533.199C1331.01 487.031 1365.18 438.39 1406.39 397.571C1416.65 387.281 1427.58 377.5 1438.96 368.26C1500.85 317.356 1578.42 284.771 1652.05 283.939C1725.44 283.141 1791.28 317.515 1817.75 357.264" stroke="#02020C" stroke-opacity="0.12" stroke-miterlimit="10"/>
<path d="M-311.23 520.73C-288.909 460.238 -239.947 411.059 -181.071 388.151C-145.692 374.278 -107.369 370.02 -70.3 374.767C-45.7906 377.92 -21.9252 385.034 -0.193368 395.837C52.1391 421.983 92.822 468.167 150.774 494.719C164.89 501.29 179.48 506.1 194.138 509.691C244.103 521.787 295.155 517.768 335.714 504.607C388.191 487.69 427.026 458.212 468.741 424.332C477.849 416.988 487.261 409.237 496.877 401.216C531.854 372.65 569.539 340.192 615.145 314.1C666.337 284.793 730.933 266.389 785.402 275.303C792.714 276.557 799.823 278.082 806.797 280.352C857.574 296.442 889.287 333.145 918.699 370.661C941.713 399.779 965.1 431.505 987.335 467.868C999.62 487.878 1011.23 509.072 1022.73 530.402C1046.63 574.146 1075.73 624.763 1126.88 634.996C1180.64 645.705 1230.14 607.934 1267.49 568.874C1272.63 563.425 1277.78 557.975 1282.79 552.424C1323.73 507.17 1359.45 460.12 1401.88 421.062C1412.58 411.314 1423.69 401.871 1435.27 393.207C1498.75 344.978 1577.64 315.71 1651.2 319.482C1724.63 323.153 1788.91 363.553 1810.16 408.277" stroke="#02020C" stroke-opacity="0.12" stroke-miterlimit="10"/>
<path d="M-313.569 529.772C-290.57 468.942 -240.119 420.033 -180.228 398.311C-144.137 385.183 -105.036 382.144 -67.7981 388.075C-42.9165 392.143 -19.0175 400.34 2.61264 412.125C54.7076 440.843 94.1036 489.871 152.394 517.1C166.645 523.772 181.235 528.582 196.096 531.903C246.807 543.288 298.841 536.832 339.671 520.489C392.656 499.51 430.782 465.054 471.549 427.079C480.522 418.786 489.596 410.358 498.976 401.524C533.174 370.047 570.115 335.761 615.721 308.822C667.116 278.398 732.627 260.468 787.535 271.617C794.881 273.108 802.057 275.107 809.065 277.613C860.112 296.446 890.335 337.11 918.257 377.74C940.052 409.329 962.05 443.187 983.269 480.904C995.317 501.794 1006.42 523.666 1017.41 545.673C1040.16 590.669 1068.75 642.809 1120.17 653.246C1173.59 664.123 1222.35 626.217 1259.8 587.868C1265.08 582.52 1270.23 577.071 1275.27 571.756C1316.48 527.552 1353.76 482.094 1397.51 444.66C1408.51 435.353 1419.92 426.35 1431.81 418.126C1496.88 372.572 1576.99 346.757 1650.45 354.896C1723.8 363.171 1786.53 409.596 1802.66 459.161" stroke="#02020C" stroke-opacity="0.12" stroke-miterlimit="10"/>
<path d="M-315.91 538.813C-292.234 477.644 -240.429 428.905 -179.15 408.436C-142.348 396.052 -102.604 394.13 -64.9263 401.45C-39.9095 406.465 -15.7737 415.475 5.7885 428.479C57.646 459.77 95.7888 511.878 154.485 539.412C168.872 546.186 183.699 550.962 198.661 554.147C249.88 564.855 302.998 555.827 344.235 536.403C397.492 511.395 435.382 471.896 475.202 429.823C483.938 420.719 492.741 411.241 502.019 401.696C535.338 367.443 571.636 331.193 617.344 303.273C668.706 271.765 735.231 254.174 790.715 267.659C798.094 269.387 805.339 271.86 812.278 274.738C863.596 296.313 892.329 340.938 918.658 384.817C939.234 418.878 959.946 454.733 980.047 493.939C991.113 515.574 1001.57 538.021 1012.16 560.569C1033.75 606.817 1061.7 660.379 1113.67 671.223C1166.51 682.303 1214.89 644.329 1252.31 606.589C1257.49 601.377 1262.77 596.029 1267.82 590.715C1309.4 547.425 1348.1 503.456 1393.2 467.885C1404.51 459.018 1416.22 450.455 1428.41 442.671C1495.08 399.791 1576.5 377.295 1650 389.903C1723.39 402.646 1784.31 455.131 1795.47 509.637" stroke="#02020C" stroke-opacity="0.12" stroke-miterlimit="10"/>
<path d="M-318.143 547.72C-293.79 486.213 -240.631 437.643 -178.201 418.461C-140.689 406.822 -100.302 406.018 -62.2857 414.861C-37.0321 420.689 -12.8627 430.782 8.59775 444.768C60.3532 478.733 97.209 533.684 156.109 561.794C170.63 568.669 185.457 573.446 200.759 576.462C252.722 586.458 306.822 574.993 348.331 552.387C402.096 523.317 439.411 478.942 478.284 432.774C486.784 422.856 495.452 412.431 504.391 402.209C536.83 365.179 572.486 326.966 618.16 297.962C669.488 265.371 737.165 248.221 793.121 264.177C800.67 266.243 807.948 268.953 814.955 272.306C866.408 296.521 893.921 345.31 918.761 392.303C938.118 428.835 957.441 466.822 976.289 507.416C986.746 529.863 996.694 552.987 1006.64 576.111C1027.22 623.713 1054.53 678.697 1106.66 689.879C1159.03 701.027 1206.8 663.019 1244.45 626.092C1249.63 620.879 1254.95 615.768 1260.13 610.556C1302.08 568.179 1342.34 525.803 1388.76 491.857C1400.38 483.429 1412.53 475.408 1425.03 468.065C1493.28 427.86 1575.89 408.58 1649.45 425.893C1722.77 443.241 1782.14 501.751 1788.19 561.097" stroke="#02020C" stroke-opacity="0.12" stroke-miterlimit="10"/>
<path d="M-320.485 556.751C-295.455 494.905 -240.941 446.505 -177.225 428.711C-139.002 417.817 -97.972 418.13 -59.6517 428.26C-34.1613 434.9 -9.82275 446.178 11.4343 461.281C62.9523 497.819 98.4195 555.749 157.759 584.401C172.179 591.411 187.48 596.12 202.748 598.899C255.354 608.321 310.538 594.282 352.454 568.595C406.592 535.362 443.435 485.977 481.496 435.813C489.724 424.846 498.19 413.845 506.994 402.675C538.655 362.734 573.566 322.693 619.24 292.843C670.67 259.27 739.261 242.594 795.759 260.649C803.24 263.088 810.552 266.034 817.728 269.726C869.451 296.683 895.576 349.297 918.823 399.54C936.961 438.543 954.997 478.527 972.728 520.611C982.44 543.769 992.016 567.671 1001.46 591.472C1020.98 640.191 1047.65 696.596 1100.22 708.32C1152.11 719.535 1199.52 681.459 1237.03 645.277C1242.35 640.167 1247.56 635.191 1252.74 629.979C1295.07 588.516 1336.89 547.731 1384.52 515.546C1396.54 507.423 1408.9 499.978 1421.6 493.21C1491.45 455.68 1575.37 439.717 1648.73 461.533C1722.08 483.349 1779.89 547.885 1780.83 612.072" stroke="#02020C" stroke-opacity="0.12" stroke-miterlimit="10"/>
<path d="M-322.957 565.691C-297.25 503.507 -241.247 455.378 -176.414 438.633C-137.345 428.586 -95.6716 430.016 -57.0469 441.432C-31.2859 449.122 -6.94752 461.246 14.3432 477.433C65.6237 516.543 99.9393 577.419 159.482 606.646C174.038 613.758 189.338 618.467 205.046 620.941C258.262 629.55 314.564 613.176 356.649 584.443C411.195 547.282 447.666 492.751 484.543 438.525C492.535 426.746 500.865 414.797 509.331 402.95C540.112 360.233 574.481 318.092 620.156 287.396C671.552 252.74 741.294 236.504 798.232 256.793C805.747 259.469 813.126 262.89 820.234 266.953C872.228 296.653 896.862 353.227 918.518 406.72C935.301 448.092 952.084 490.311 968.799 533.748C977.901 557.719 986.834 582.196 995.868 606.539C1014.24 656.51 1040.4 714.439 1093.24 726.366C1144.8 737.751 1191.46 699.539 1229.07 664.068C1234.29 659.092 1239.5 654.117 1244.85 649.243C1287.69 608.796 1330.79 569.399 1379.78 539.076C1392.1 531.394 1404.77 524.389 1417.77 518.061C1489.21 483.205 1574.35 470.696 1647.74 496.981C1721.03 523.401 1777.28 593.963 1773.1 662.989" stroke="#02020C" stroke-opacity="0.12" stroke-miterlimit="10"/>
<path d="M-325.294 574.731C-298.91 512.209 -241.654 464.385 -175.433 448.893C-135.654 439.591 -93.3371 442.138 -54.2727 454.943C-28.2748 463.445 -3.90279 476.653 17.2862 493.82C68.3292 535.504 101.256 599.358 161.34 628.992C176.032 636.206 191.569 640.88 207.243 643.118C261.103 651.152 318.251 632.239 360.845 600.289C415.764 558.965 451.66 499.559 487.725 441.338C495.582 428.61 503.574 415.985 511.904 403.19C541.806 357.696 575.533 313.592 621.207 282.049C672.57 246.31 743.327 230.412 800.84 253.038C808.524 256.052 815.937 259.71 822.978 264.146C875.106 296.486 898.521 357.224 918.551 413.73C934.115 457.573 949.612 501.789 965.108 546.851C973.6 571.633 982.126 596.653 990.551 621.808C1007.77 673.032 1033.29 732.382 1086.67 744.715C1137.65 756.303 1183.94 718.023 1221.52 683.162C1226.87 678.288 1232.09 673.312 1237.33 668.574C1280.54 629.041 1325.2 591.236 1375.41 562.673C1388.04 555.431 1401.01 548.866 1414.31 542.978C1487.34 510.797 1573.67 501.505 1647.12 532.495C1720.58 563.485 1775.04 640.107 1765.75 713.973" stroke="#02020C" stroke-opacity="0.12" stroke-miterlimit="10"/>
<path d="M-327.53 583.627C-300.57 520.902 -241.859 473.112 -174.386 458.771C-106.913 444.431 -32.4052 464.148 20.1942 509.962C70.9998 554.219 102.674 621.153 163.063 651.227C228.529 683.841 309.613 661.513 365.04 616.126C420.467 570.74 455.89 506.323 491.009 444.006C526.127 381.688 563.988 318.254 622.224 276.456C680.46 234.659 764.995 220.423 825.687 261.093C878.085 296.175 900.01 360.874 918.448 420.629C940.676 492.538 962.937 564.684 985.165 636.594C1001.37 689.171 1026.24 749.943 1079.9 762.48C1130.3 774.271 1176.08 735.822 1213.77 701.671C1272.85 648.025 1336.3 597.02 1410.68 567.548C1485.3 538.042 1572.95 532.067 1646.34 567.662C1719.73 603.256 1772.62 685.903 1758.22 764.61" stroke="#02020C" stroke-opacity="0.12" stroke-miterlimit="10"/>
<path d="M-308.089 549.54C-277 493.722 -218.257 455.479 -155.119 448.043C-91.8448 440.709 -25.4288 464.725 24.1571 513.991C71.3398 560.82 103.047 628.838 163.233 660.875C228.36 695.351 310.73 676.104 367.342 631.395C422.43 587.87 457.277 524.503 493.039 464.149C530.154 401.425 570.825 338.195 630.382 295.483C688.313 254.092 771.224 238.637 832.085 277.953C884.551 311.817 907.322 375.669 925.828 435.052C947.921 506.013 969.675 577.144 991.767 648.105C1008.18 700.412 1033.59 760.744 1087.24 773.28C1137.89 785.037 1184.1 747.13 1222.03 712.946C1280.26 660.146 1342.46 609.682 1416.03 580.447C1489.6 551.212 1576.34 545.609 1648.71 580.865C1721.08 616.121 1773.54 697.379 1760.46 775.172" stroke="#02020C" stroke-opacity="0.12" stroke-miterlimit="10"/>
<path d="M-288.892 515.495C-253.776 466.719 -195.136 437.921 -136.197 437.493C-77.2576 437.064 -18.7981 465.479 27.6387 518.096C71.1986 567.497 102.804 636.497 163.023 670.464C227.913 706.666 311.467 690.635 369.365 646.468C424.216 604.669 458.522 542.589 494.791 484.097C533.904 420.968 577.282 358.076 638.261 314.315C695.617 273.127 777.411 256.622 838.204 294.618C890.637 327.398 914.254 390.404 932.93 449.279C954.989 519.158 976.032 589.543 998.091 659.421C1014.74 711.694 1040.79 771.451 1094.35 784.123C1145.26 796.083 1191.92 758.718 1230.08 724.499C1287.6 672.647 1348.65 622.589 1421.07 593.76C1493.83 564.762 1579.31 559.701 1650.9 594.584C1722.5 629.467 1774.14 709.27 1762.38 786.149" stroke="#02020C" stroke-opacity="0.12" stroke-miterlimit="10"/>
<path d="M-269.584 481.305C-230.577 439.469 -171.803 420.083 -117.198 426.559C-62.4923 432.901 -12.1246 465.613 31.3323 521.92C71.3709 573.758 102.706 644.247 162.924 679.906C227.509 718.207 312.213 705.157 371.533 661.632C426.045 621.696 460.148 560.732 496.822 504.238C538.068 440.804 584.02 378.151 646.285 333.239C703.201 292.355 783.607 274.598 844.333 311.273C896.833 342.835 921.196 405.13 940.041 463.497C962.201 532.394 982.5 601.797 1004.42 670.727C1021.17 722.865 1047.87 782.046 1101.42 794.718C1152.47 806.78 1199.67 769.821 1238.2 735.67C1295.02 684.766 1354.92 635.114 1426.05 606.59C1497.76 577.862 1582.32 573.173 1652.9 607.717C1723.48 642.262 1774.68 720.677 1764.11 796.54" stroke="#02020C" stroke-opacity="0.12" stroke-miterlimit="10"/>
<path d="M-250.146 447.217C-207.111 412.424 -148.441 402.482 -97.9338 415.83C-47.5623 429.077 -5.18485 465.952 35.1569 525.847C71.6405 579.884 102.806 651.727 163.193 689.418C227.439 729.581 313.294 719.51 374.035 676.629C428.175 638.317 462.006 578.843 499.154 523.974C542.398 460.135 591.057 397.82 654.745 351.859C711.221 311.28 790.272 292.506 851.032 327.726C903.601 358.069 928.81 419.518 947.824 477.378C969.951 545.191 989.539 613.85 1011.43 681.696C1028.41 733.8 1055.62 792.305 1109.17 804.976C1160.46 817.004 1208.13 780.824 1246.77 746.538C1303.01 696.683 1361.62 647.336 1431.6 619.217C1502.39 590.862 1586.04 586.545 1655.47 620.649C1724.9 654.753 1775.66 731.78 1766.41 806.73" stroke="#02020C" stroke-opacity="0.12" stroke-miterlimit="10"/>
<path d="M-230.844 413.027C-183.68 385.141 -125.351 384.679 -78.8059 405C-32.9044 425.05 1.71982 466.054 38.9801 529.773C72.044 586.112 102.938 659.445 163.223 698.964C227.232 740.853 314.136 733.896 376.198 691.795C429.964 655.108 460.377 594.55 501.045 544.014C550.347 482.817 597.755 417.658 662.763 370.784C718.799 330.509 796.598 310.584 857.155 344.382C909.69 373.642 935.746 434.245 954.929 491.596C977.023 558.326 995.764 626.138 1017.76 693.003C1034.84 744.972 1062.83 803.002 1116.38 815.674C1167.94 827.905 1216.15 792.132 1255.02 757.812C1310.55 708.904 1368.01 659.963 1436.84 632.251C1506.59 604.166 1589.22 600.356 1657.97 633.953C1726.62 667.684 1776.57 743.255 1768.64 817.291" stroke="#02020C" stroke-opacity="0.12" stroke-miterlimit="10"/>
<path d="M-211.405 378.937C-160.215 358.093 -102.022 366.838 -59.7782 394.302C-18.3467 421.156 8.52419 466.288 42.6693 533.595C72.2797 591.999 102.801 666.956 163.12 708.405C226.79 752.156 314.844 748.179 378.327 706.72C431.62 671.794 461.693 612.252 503.038 563.917C555.049 503.058 604.454 437.493 670.884 389.57C726.344 349.498 802.891 328.422 863.516 361.001C916.255 389.144 942.92 448.934 962.408 505.88C984.468 571.526 1002.5 638.594 1024.56 704.24C1041.88 756.175 1070.37 813.528 1123.83 826.336C1175.52 838.668 1224.17 803.436 1263.52 769.049C1318.34 721.089 1374.51 672.452 1442.42 645.112C1511.36 617.264 1592.84 613.861 1660.58 647.118C1728.31 680.376 1777.72 754.694 1771.07 827.579" stroke="#02020C" stroke-opacity="0.12" stroke-miterlimit="10"/>
<path d="M-192.204 344.891C-137.122 330.988 -78.9311 349.043 -40.751 383.615C-3.68795 417.137 15.4297 466.398 46.3917 537.665C72.6841 598.235 102.934 674.682 163.287 718.06C226.618 763.673 315.72 762.81 380.727 721.86C433.647 688.559 463.517 630.133 505.166 583.931C559.851 523.175 611.423 457.543 679.005 408.367C734.024 368.6 809.217 346.508 869.877 377.631C922.683 404.555 950.33 463.601 969.751 520.073C991.777 584.636 1009.2 650.823 1031.12 715.521C1048.55 767.321 1077.68 824.099 1131.14 836.906C1182.96 849.34 1232.3 814.616 1271.64 780.229C1325.75 733.217 1380.67 685.121 1447.53 658.052C1515.41 630.474 1595.99 627.443 1662.84 660.463C1729.7 693.484 1778.4 766.211 1773.07 838.182" stroke="#02020C" stroke-opacity="0.12" stroke-miterlimit="10"/>
<path d="M-172.765 310.8C-113.655 303.939 -55.6019 331.203 -21.4856 372.883C11.3106 412.938 22.675 466.328 50.3525 541.691C73.4284 604.291 103.17 682.261 163.455 727.704C226.549 775.044 316.7 777.296 383.162 737.226C435.709 705.55 465.545 648.58 507.329 604.172C564.452 543.552 618.394 477.582 687.296 427.492C741.875 388.029 815.681 364.685 876.273 394.488C929.045 420.328 957.64 478.393 977.129 534.492C999.257 598.073 1015.83 663.414 1037.72 727.029C1055.49 778.659 1085.16 834.997 1138.48 847.703C1190.68 860.205 1240.22 826.056 1280.03 791.601C1333.43 745.537 1387.2 697.848 1452.78 671.083C1519.75 643.877 1599.27 641.117 1665.11 673.799C1730.95 706.48 1779.21 777.819 1775.2 848.877" stroke="#02020C" stroke-opacity="0.12" stroke-miterlimit="10"/>
<path d="M-153.46 276.612C-90.3232 276.794 -32.4407 313.028 -2.35447 362.054C26.175 408.642 29.7861 466.16 54.0436 545.518C73.7676 610.047 103.171 689.879 163.455 737.015C226.21 786.216 317.376 791.346 385.396 752.022C437.333 722.004 471.23 669.774 509.392 623.707C563.774 558.279 625.163 497.05 695.486 445.911C749.626 406.753 822.179 382.257 882.703 410.74C935.544 435.361 964.884 492.715 984.542 548.306C1006.64 610.804 1022.6 675.265 1044.36 737.932C1062.22 789.427 1092.54 845.189 1145.9 858.132C1198.23 870.736 1248.31 836.993 1288.4 802.741C1341.08 757.625 1393.7 710.342 1458.13 683.983C1524.15 656.913 1602.55 654.795 1667.61 687.104C1732.54 719.312 1780.12 789.296 1777.43 859.44" stroke="#02020C" stroke-opacity="0.12" stroke-miterlimit="10"/>
<path d="M-134.023 242.53C-66.8925 249.517 -8.77479 295.028 16.7737 351.229C41.0363 404.35 37.0295 466.098 57.867 549.45C74.5099 616.111 103.27 697.365 163.485 746.566C226.003 797.494 318.219 805.739 387.558 767.193C438.987 738.698 473.122 688.128 511.419 643.855C568.204 578.325 631.894 517.131 703.505 464.841C757.204 425.988 828.268 400.374 888.826 427.401C941.735 450.805 971.82 507.447 991.647 562.531C1013.71 623.946 1028.96 687.661 1050.69 749.245C1068.79 800.706 1099.62 855.792 1152.97 868.734C1205.44 881.439 1256.09 848.341 1296.38 813.818C1348.22 769.548 1399.69 722.67 1463.1 696.819C1528.2 670.121 1605.56 668.274 1669.61 700.244C1733.65 732.215 1780.66 800.71 1779.16 869.838" stroke="#02020C" stroke-opacity="0.12" stroke-miterlimit="10"/>
<path d="M-114.717 208.339C-43.5595 222.368 14.5226 276.951 35.8041 340.532C55.7998 400.186 44.2767 466.029 61.4573 553.409C74.9853 621.965 103.169 705.114 163.418 756.245C225.732 809.137 318.692 820.056 389.724 782.357C440.645 755.385 475.016 706.474 513.313 663.893C572.468 598.026 638.596 536.967 711.527 483.763C764.651 445.113 834.597 418.45 895.089 444.157C947.964 466.477 978.996 522.138 998.892 576.849C1020.92 637.181 1035.7 700.117 1057.25 760.516C1075.59 811.943 1107.06 866.454 1160.28 879.295C1212.89 892.102 1264.08 859.409 1304.64 825.089C1355.77 781.767 1406.09 735.296 1468.45 709.715C1532.5 683.288 1608.95 681.813 1671.98 713.445C1735 745.076 1781.44 812.081 1781.26 880.296" stroke="#02020C" stroke-opacity="0.12" stroke-miterlimit="10"/>
<path d="M-95.3834 174.385C-20.1988 195.457 37.983 259.214 54.9637 329.938C70.828 396.226 51.7886 466.164 65.3121 557.571C75.7591 628.259 103.299 712.831 163.582 765.891C225.659 820.509 319.532 834.441 392.155 797.724C442.568 772.276 477.074 725.159 515.472 684.136C577.166 618.269 645.461 557.143 719.814 502.89C772.497 464.544 841.056 436.628 901.48 461.015C954.423 482.116 986.201 537.066 1006.27 591.27C1028.16 650.653 1042.43 712.574 1063.85 772.025C1082.39 823.182 1114.41 877.252 1167.62 890.093C1220.6 902.968 1272.1 870.715 1313.03 836.464C1363.45 794.089 1412.61 748.024 1473.69 722.747C1536.93 696.557 1612.22 695.488 1674.37 726.882C1736.49 758.04 1782.24 823.691 1783.38 890.992" stroke="#02020C" stroke-opacity="0.12" stroke-miterlimit="10"/>
<path d="M-76.0797 140.195C2.99672 168.208 61.5152 241.106 74.0935 319.107C85.8264 392.03 59.2707 466.062 69.0019 561.396C76.4693 634.081 103.4 720.311 163.479 775.335C225.217 831.815 320.105 848.625 394.285 812.653C444.156 788.491 479.068 743.371 517.568 703.905C581.665 637.937 652.262 576.845 727.901 521.442C780.145 483.401 847.35 454.469 907.808 477.4C960.819 497.282 993.477 551.623 1013.58 605.218C1035.43 663.518 1049 724.694 1070.38 783.061C1089.16 834.184 1121.68 887.577 1174.93 900.655C1228.04 913.632 1280.12 882.023 1321.26 847.5C1370.96 806.073 1418.87 760.549 1478.9 735.543C1541.23 709.725 1615.37 709.063 1676.71 739.847C1737.94 770.768 1783.12 834.929 1785.45 901.215" stroke="#02020C" stroke-opacity="0.12" stroke-miterlimit="10"/>
<path d="M-56.7749 106.007C26.4303 140.926 84.947 223.134 93.0891 308.176C100.691 387.733 66.6186 465.86 72.6928 565.222C77.1807 639.903 103.265 727.826 163.614 784.746C225.115 842.952 320.883 862.538 396.552 827.684C445.915 805.045 481.199 761.686 519.563 723.811C586.436 657.81 658.963 596.685 736.024 540.232C787.929 502.36 853.645 472.311 914.171 494.023C967.148 512.822 1000.75 566.182 1020.92 619.403C1042.74 676.62 1055.7 736.916 1076.95 794.336C1095.96 845.424 1129.13 898.242 1182.24 911.219C1235.49 924.297 1288.11 893.094 1329.52 858.774C1378.38 818.194 1425.14 773.076 1484.15 748.578C1545.43 723.03 1618.79 722.841 1679.11 753.287C1739.43 783.734 1783.94 846.541 1787.58 911.913" stroke="#02020C" stroke-opacity="0.12" stroke-miterlimit="10"/>
<path d="M-37.3394 71.9244C49.893 113.886 108.51 205.268 112.351 297.452C115.821 383.644 74.368 465.968 76.5145 569.154C78.1583 645.934 103.497 735.414 163.643 794.297C224.907 854.23 321.419 876.49 398.815 842.72C447.534 821.503 483.224 780.141 521.553 743.722C590.966 677.721 665.76 616.393 744.142 559.027C795.472 521.358 860.07 490.259 920.394 510.549C973.439 528.129 1007.79 580.778 1028.26 633.594C1050.05 689.727 1062.29 749.278 1083.51 805.615C1102.63 856.568 1136.44 908.811 1189.55 921.787C1243.07 935.068 1295.99 904.306 1337.87 869.919C1386.02 830.285 1431.63 785.574 1489.49 761.481C1549.96 736.171 1622.17 736.388 1681.47 766.495C1740.78 796.603 1784.84 858.022 1789.81 922.48" stroke="#02020C" stroke-opacity="0.12" stroke-miterlimit="10"/>
<path d="M-18.0381 37.7352C73.2216 86.7392 131.938 187.296 131.377 286.757C130.851 379.685 81.8816 466.104 80.2357 573.216C79.0354 652.095 103.629 743.132 163.673 803.843C224.598 865.638 322.091 890.539 401.112 857.987C449.289 838.057 485.52 798.794 523.579 763.865C595.666 697.966 672.627 636.571 752.262 577.816C803.151 540.452 866.396 508.337 926.753 527.172C979.866 543.533 1014.96 595.471 1035.6 647.779C1057.36 702.829 1068.99 761.5 1090.18 816.753C1109.63 867.537 1143.85 919.238 1196.86 932.35C1250.62 945.597 1303.98 915.377 1346.13 881.193C1393.57 842.507 1438.02 798.202 1494.6 774.414C1554.02 749.374 1625.31 749.963 1683.6 779.732C1742.03 809.602 1785.38 869.43 1791.67 932.974" stroke="#02020C" stroke-opacity="0.12" stroke-miterlimit="10"/>
<path d="M1.40715 3.64591C96.5586 59.5906 155.645 169.525 150.513 275.925C145.855 375.488 89.6068 465.967 83.9316 577.04C79.8871 658.017 103.6 750.509 163.577 813.286C224.264 876.807 322.501 904.383 403.248 872.915C450.782 854.406 487.419 817.14 525.578 783.768C600.475 718.073 679.332 656.407 760.389 596.604C810.839 559.544 872.696 526.177 932.985 543.691C986.065 558.969 1022.01 610.061 1042.82 661.861C1064.44 715.963 1075.57 773.618 1096.61 827.923C1116.3 878.674 1151.16 929.799 1204.18 942.911C1258.07 956.26 1312 926.682 1354.36 892.228C1400.95 854.389 1444.39 810.591 1499.92 787.073C1558.42 762.405 1628.57 763.401 1686.08 792.797C1743.59 822.193 1786.4 880.768 1793.87 943.297" stroke="#02020C" stroke-opacity="0.12" stroke-miterlimit="10"/>
<path d="M20.6044 -30.4044C119.783 32.5826 178.97 151.691 169.536 265.234C160.747 371.431 97.2534 466.208 87.6503 581.105C80.7618 664.181 103.73 758.23 163.638 823.072C224.325 888.285 323.07 918.57 405.441 888.321C452.433 871.099 489.611 835.932 527.601 803.914C605.206 738.558 686.163 676.351 768.54 615.634C818.549 578.879 879.154 544.36 939.376 560.554C992.659 574.715 1029.21 624.994 1050.19 676.287C1071.78 729.306 1082.43 786.182 1103.21 839.437C1123.24 890.018 1158.61 940.467 1211.52 953.714C1265.68 967.266 1320.02 937.994 1362.65 903.742C1408.53 866.851 1450.82 823.459 1505.19 800.347C1562.75 775.815 1631.88 777.318 1688.37 806.375C1744.87 835.433 1787.11 892.518 1796 953.998" stroke="#02020C" stroke-opacity="0.12" stroke-miterlimit="10"/>
<path d="M40.0435 -64.4902C143.351 5.40376 202.773 133.788 188.801 254.507C176.017 367.44 105.142 466.414 91.4755 585.034C81.7429 670.208 103.831 765.713 163.772 832.484C224.12 899.559 323.812 932.248 407.809 903.218C454.123 887.18 491.877 854.35 529.697 823.686C610.247 758.635 692.964 696.056 776.628 634.188C826.197 597.737 885.312 562.101 945.704 576.941C998.953 590.019 1036.45 639.317 1057.5 690.237C1079.05 742.172 1089.1 798.168 1109.74 850.476C1129.87 900.921 1165.88 950.795 1218.79 964.042C1273.09 977.695 1327.84 948.728 1370.97 914.646C1416.01 878.6 1457.04 835.75 1510.5 813.011C1567.15 788.85 1635.22 790.624 1690.84 819.444C1746.56 848.129 1788.12 903.86 1798.2 964.324" stroke="#02020C" stroke-opacity="0.12" stroke-miterlimit="10"/>
<path d="M59.3476 -98.6855C166.547 -21.8508 226.102 115.945 207.83 243.806C190.914 363.374 112.793 466.645 95.1995 589.09C82.6565 676.599 103.965 773.425 163.703 842.159C223.814 910.961 324.217 946.087 409.872 918.513C455.644 903.762 493.837 873.166 531.624 843.958C615.153 779.449 699.596 716.261 784.682 653.344C833.675 617.096 891.674 580.41 951.863 593.828C1005.18 605.687 1043.42 654.275 1064.74 704.551C1086.16 755.539 1095.6 810.654 1116.2 861.879C1136.67 912.155 1173.23 961.589 1225.9 974.869C1280.44 988.489 1335.66 960.3 1379 925.947C1423.32 890.85 1463.2 848.405 1515.38 825.97C1570.97 802.081 1638.03 804.362 1692.73 832.708C1747.44 861.054 1788.42 915.296 1799.82 974.846" stroke="#02020C" stroke-opacity="0.12" stroke-miterlimit="10"/>
<path d="M78.7817 -132.769C190.008 -48.8921 249.663 98.0779 226.955 232.98C205.806 359.317 120.541 466.752 98.8843 592.92C83.6327 682.629 103.824 780.943 163.833 851.574C223.604 922.238 324.819 959.666 412.369 933.514C457.6 920.049 496.233 891.687 533.85 863.833C620.256 800.002 706.528 736.07 793.036 672.103C841.589 636.161 898.2 598.222 958.457 610.421C1011.84 621.061 1050.83 668.938 1072.32 718.707C1093.7 768.611 1102.53 822.846 1123.24 873.089C1143.95 923.332 1181.01 972.088 1233.82 985.47C1288.49 999.192 1344.25 971.409 1387.86 937.259C1431.47 903.11 1470.21 861.071 1521.23 839.042C1576.01 815.389 1641.92 818.077 1695.84 846.05C1749.53 874.058 1789.94 926.81 1802.66 985.446" stroke="#02020C" stroke-opacity="0.12" stroke-miterlimit="10"/>
</g>
<defs>
<clipPath id="clip0_117_1963">
<rect width="1724" height="504" fill="white"/>
</clipPath>
</defs>
</svg>
